<?xml version="1.0" encoding="utf-8"?>
<!-- Generator: Adobe Illustrator 16.0.0, SVG Export Plug-In . SVG Version: 6.00 Build 0)  -->
<!DOCTYPE svg PUBLIC "-//W3C//DTD SVG 1.1//EN" "http://www.w3.org/Graphics/SVG/1.1/DTD/svg11.dtd">
<svg version="1.1" id="Layer_1" xmlns="http://www.w3.org/2000/svg" xmlns:xlink="http://www.w3.org/1999/xlink" x="0px" y="0px"
	 width="349px" height="349px" viewBox="0 0 349 349" enable-background="new 0 0 349 349" xml:space="preserve">
<g id="Layer_1_1_" display="none">
</g>
<g id="Layer_2_1_">
	<line fill="none" x1="99" y1="140.333" x2="213.667" y2="201"/>
	<polygon fill="#E65757" points="46.333,72.333 25,111 25,152.333 42.333,174.5 91.667,227.667 151.667,285.667 174.025,311.667 
		319,170.667 330.333,140.333 323,105 303.667,77.667 274.333,60.333 233,57 200.333,73.667 177.666,91.667 134.333,67 94.333,57 	
		"/>
</g>
<g id="Layer_2">
	<g>
		<g>
			<path fill="#FFFFFF" d="M-17.224,367.551c0-128.219,0-256.438,0-384.729c127.912,0,255.849,0,383.906,0
				c0,128.194,0,256.461,0,384.729C238.772,367.551,110.787,367.551-17.224,367.551z M174.736,331.731
				c0.62-0.506,0.932-0.719,1.194-0.982c47.056-47.159,94.354-94.081,141.042-141.601c19.477-19.823,29.539-43.416,24.469-72.207
				c-7.196-40.865-44.332-73.287-85.788-74.161c-25.719-0.542-48.258,7.939-68.205,23.796c-4.374,3.477-8.434,7.349-13.638,11.917
				c-0.822-1.281-1.434-2.755-2.483-3.784c-9.626-9.438-20.521-17.068-32.759-22.772c-42.14-19.64-90.294-7.317-115.87,30.084
				C9.499,101.326,3.478,122.718,8.407,146.018c3.889,18.382,14.348,33.384,27.401,46.516
				c45.292,45.563,90.707,91.007,136.078,136.492C172.755,329.896,173.67,330.722,174.736,331.731z"/>
			<path fill-rule="evenodd" clip-rule="evenodd" d="M174.736,331.731c-1.066-1.01-1.981-1.835-2.85-2.706
				c-45.371-45.485-90.785-90.929-136.078-136.492c-13.053-13.132-23.512-28.134-27.401-46.516
				c-4.93-23.3,1.092-44.691,14.291-63.995c25.576-37.402,73.73-49.724,115.87-30.084c12.238,5.704,23.132,13.335,32.759,22.772
				c1.049,1.029,1.661,2.503,2.483,3.784c5.204-4.568,9.264-8.441,13.638-11.917c19.947-15.857,42.486-24.339,68.205-23.796
				c41.456,0.874,78.592,33.296,85.788,74.161c5.07,28.791-4.992,52.383-24.469,72.207c-46.688,47.52-93.986,94.441-141.042,141.601
				C175.668,331.013,175.356,331.226,174.736,331.731z M174.143,110.917c0.226,0.145-0.021,0.05-0.179-0.125
				c-1.678-1.852-3.331-3.727-5.011-5.577c-12.872-14.166-28.013-25.199-45.641-32.691c-33.441-14.212-70.486-0.52-86.01,31.797
				c-9.187,19.127-9.125,37.904,3.2,55.743c4.17,6.036,8.696,11.966,13.853,17.157c39.016,39.287,78.228,78.379,117.385,117.525
				c0.945,0.944,1.955,1.825,3.758,3.501c1.006-1.441,1.703-2.833,2.746-3.877c38.151-38.208,76.329-76.39,114.521-114.557
				c8.021-8.015,14.485-17.158,19.927-27.062c5.085-9.257,6.891-18.925,5.479-29.587c-4.762-35.976-41.55-62.541-76.96-55.237
				c-15.518,3.201-29.18,10.381-41.419,20.067C190.927,95.013,182.874,103.051,174.143,110.917z"/>
		</g>
	</g>
</g>
</svg>
