<?xml version="1.0" encoding="utf-8"?>
<!-- Generator: Adobe Illustrator 16.0.0, SVG Export Plug-In . SVG Version: 6.00 Build 0)  -->
<!DOCTYPE svg PUBLIC "-//W3C//DTD SVG 1.1//EN" "http://www.w3.org/Graphics/SVG/1.1/DTD/svg11.dtd">
<svg version="1.1" id="Layer_1" xmlns="http://www.w3.org/2000/svg" xmlns:xlink="http://www.w3.org/1999/xlink" x="0px" y="0px"
	 width="349px" height="349px" viewBox="0 0 349 349" enable-background="new 0 0 349 349" xml:space="preserve">
<g id="Layer_1_1_" display="none">
</g>
<g id="Layer_2">
	<g>
		<g>
			<path fill="#FFFFFF" d="M-17.224,366.801c0-127.969,0-255.937,0-383.978c127.912,0,255.849,0,383.906,0
				c0,127.944,0,255.961,0,383.978C238.772,366.801,110.787,366.801-17.224,366.801z M174.727,331.729
				c0.616-0.496,0.931-0.705,1.192-0.967c47.056-47.159,94.347-94.087,141.046-141.597c19.707-20.049,29.678-43.923,24.384-72.949
				c-7.342-40.253-44.365-72.418-85.303-73.425c-25.859-0.635-48.525,7.836-68.585,23.777c-4.376,3.477-8.437,7.35-13.669,11.942
				c-0.807-1.272-1.406-2.759-2.454-3.787c-9.624-9.44-20.518-17.072-32.755-22.778C96.451,32.298,48.293,44.613,22.708,82.01
				c-13.205,19.3-19.225,40.692-14.303,63.992c3.883,18.384,14.34,33.388,27.393,46.52c45.291,45.564,90.706,91.008,136.077,136.493
				C172.744,329.887,173.658,330.715,174.727,331.729z"/>
			<path fill-rule="evenodd" clip-rule="evenodd" d="M174.727,331.729c-1.068-1.014-1.982-1.842-2.852-2.714
				c-45.371-45.485-90.786-90.929-136.077-136.493c-13.053-13.132-23.51-28.135-27.393-46.52
				c-4.922-23.3,1.098-44.691,14.303-63.992c25.585-37.397,73.744-49.712,115.875-30.065c12.237,5.706,23.131,13.338,32.755,22.778
				c1.048,1.028,1.647,2.514,2.454,3.787c5.233-4.592,9.293-8.466,13.669-11.942c20.06-15.941,42.726-24.412,68.585-23.777
				c40.938,1.006,77.961,33.172,85.303,73.425c5.294,29.026-4.677,52.9-24.384,72.949c-46.699,47.51-93.99,94.438-141.046,141.597
				C175.657,331.023,175.343,331.232,174.727,331.729z M174.771,111.736c-2.254-2.527-4.064-4.59-5.911-6.62
				c-12.879-14.157-28.034-25.177-45.667-32.646c-33.433-14.161-70.507-0.359-85.955,31.976
				c-9.151,19.156-9.004,37.921,3.332,55.739c4.106,5.931,8.545,11.768,13.615,16.872c39.107,39.372,78.406,78.554,117.651,117.789
				c0.937,0.936,1.933,1.812,3.482,3.259c1.156-1.484,1.963-2.783,3.016-3.836c38.248-38.288,76.521-76.551,114.785-114.822
				c8.195-8.197,14.802-17.57,20.132-27.822c3.184-6.125,5.576-12.54,5.538-19.623c-0.237-42.99-42.291-74.651-83.522-62.603
				c-20.784,6.072-37.803,18.379-52.769,33.709C179.903,105.767,177.531,108.641,174.771,111.736z"/>
			<path fill-rule="evenodd" clip-rule="evenodd" fill="#FFFFFF" d="M174.771,111.736c2.761-3.095,5.133-5.969,7.728-8.628
				c14.966-15.331,31.984-27.637,52.769-33.709c41.231-12.048,83.285,19.613,83.522,62.603c0.038,7.083-2.354,13.498-5.538,19.623
				c-5.33,10.252-11.937,19.625-20.132,27.822c-38.264,38.271-76.537,76.534-114.785,114.822c-1.053,1.053-1.859,2.352-3.016,3.836
				c-1.549-1.446-2.546-2.323-3.482-3.259c-39.245-39.235-78.543-78.417-117.651-117.789c-5.069-5.104-9.508-10.941-13.615-16.872
				c-12.336-17.818-12.483-36.583-3.332-55.739C52.686,72.111,89.76,58.309,123.193,72.47c17.632,7.469,32.787,18.489,45.667,32.646
				C170.707,107.146,172.517,109.209,174.771,111.736z"/>
		</g>
	</g>
</g>
</svg>
